<svg width="24" height="24" viewBox="0 0 24 24" fill="none" xmlns="http://www.w3.org/2000/svg">
<path fill-rule="evenodd" clip-rule="evenodd" d="M14.6669 10.549L9.70285 14.925C9.51185 15.093 9.27485 15.181 9.01785 15.181C8.84685 15.181 8.52085 15.139 8.25985 14.855C8.08685 14.668 7.99985 14.429 8.01285 14.182C8.02485 13.933 8.13785 13.701 8.33185 13.531L13.2969 9.155C13.4849 8.99 13.7279 8.9 13.9809 8.9C14.1519 8.9 14.4789 8.943 14.7399 9.226C14.9119 9.413 14.9999 9.652 14.9869 9.898C14.9719 10.153 14.8569 10.382 14.6669 10.549V10.549ZM15.4769 8.549C15.0979 8.137 14.5529 7.9 13.9809 7.9C13.4839 7.9 13.0059 8.079 12.6369 8.405L7.66985 12.781C7.27385 13.13 7.04085 13.609 7.01385 14.129C6.98685 14.647 7.16685 15.145 7.52285 15.531C7.90285 15.945 8.44785 16.181 9.01785 16.181C9.51585 16.181 9.99385 16.001 10.3629 15.676L15.3279 11.3C15.7249 10.95 15.9579 10.471 15.9849 9.95C16.0129 9.433 15.8319 8.936 15.4769 8.549V8.549ZM15.0629 15.746L12.7639 17.773C11.7339 18.68 10.4039 19.18 9.01885 19.18C7.61585 19.18 6.27285 18.67 5.23785 17.743L5.02785 17.555L5.89585 16.791L6.06085 16.937C6.87485 17.652 7.92585 18.045 9.01885 18.045C10.1129 18.045 11.1639 17.65 11.9769 16.933L14.2829 14.901L15.0629 15.746ZM20.9909 10.203C20.8959 12.033 20.0749 13.717 18.6819 14.945L13.7119 19.325C12.4219 20.459 10.7559 21.084 9.01986 21.084C7.02986 21.084 5.12685 20.257 3.79785 18.814C2.54885 17.455 1.91385 15.704 2.00885 13.881C2.10385 12.053 2.92185 10.37 4.31085 9.142L9.28385 4.76C10.5729 3.623 12.2409 2.996 13.9799 2.996C15.9689 2.996 17.8719 3.824 19.1999 5.268C20.4499 6.626 21.0869 8.379 20.9909 10.203V10.203ZM13.9779 2C11.9939 2 10.0919 2.714 8.62185 4.009L3.65085 8.392C2.05785 9.799 1.11985 11.73 1.01085 13.83C0.900855 15.923 1.62985 17.934 3.06285 19.49C4.57585 21.136 6.74885 22.08 9.02185 22.08C11.0019 22.08 12.9029 21.368 14.3729 20.075L19.3429 15.695C20.9389 14.288 21.8789 12.356 21.9899 10.255C22.0999 8.162 21.3709 6.15 19.9379 4.591C18.4219 2.944 16.2499 2 13.9779 2V2Z" fill="#2E3134"/>
<mask id="mask0" mask-type="alpha" maskUnits="userSpaceOnUse" x="1" y="2" width="22" height="21">
<path fill-rule="evenodd" clip-rule="evenodd" d="M14.6669 10.549L9.70285 14.925C9.51185 15.093 9.27485 15.181 9.01785 15.181C8.84685 15.181 8.52085 15.139 8.25985 14.855C8.08685 14.668 7.99985 14.429 8.01285 14.182C8.02485 13.933 8.13785 13.701 8.33185 13.531L13.2969 9.155C13.4849 8.99 13.7279 8.9 13.9809 8.9C14.1519 8.9 14.4789 8.943 14.7399 9.226C14.9119 9.413 14.9999 9.652 14.9869 9.898C14.9719 10.153 14.8569 10.382 14.6669 10.549V10.549ZM15.4769 8.549C15.0979 8.137 14.5529 7.9 13.9809 7.9C13.4839 7.9 13.0059 8.079 12.6369 8.405L7.66985 12.781C7.27385 13.13 7.04085 13.609 7.01385 14.129C6.98685 14.647 7.16685 15.145 7.52285 15.531C7.90285 15.945 8.44785 16.181 9.01785 16.181C9.51585 16.181 9.99385 16.001 10.3629 15.676L15.3279 11.3C15.7249 10.95 15.9579 10.471 15.9849 9.95C16.0129 9.433 15.8319 8.936 15.4769 8.549V8.549ZM15.0629 15.746L12.7639 17.773C11.7339 18.68 10.4039 19.18 9.01885 19.18C7.61585 19.18 6.27285 18.67 5.23785 17.743L5.02785 17.555L5.89585 16.791L6.06085 16.937C6.87485 17.652 7.92585 18.045 9.01885 18.045C10.1129 18.045 11.1639 17.65 11.9769 16.933L14.2829 14.901L15.0629 15.746ZM20.9909 10.203C20.8959 12.033 20.0749 13.717 18.6819 14.945L13.7119 19.325C12.4219 20.459 10.7559 21.084 9.01986 21.084C7.02986 21.084 5.12685 20.257 3.79785 18.814C2.54885 17.455 1.91385 15.704 2.00885 13.881C2.10385 12.053 2.92185 10.37 4.31085 9.142L9.28385 4.76C10.5729 3.623 12.2409 2.996 13.9799 2.996C15.9689 2.996 17.8719 3.824 19.1999 5.268C20.4499 6.626 21.0869 8.379 20.9909 10.203V10.203ZM13.9779 2C11.9939 2 10.0919 2.714 8.62185 4.009L3.65085 8.392C2.05785 9.799 1.11985 11.73 1.01085 13.83C0.900855 15.923 1.62985 17.934 3.06285 19.49C4.57585 21.136 6.74885 22.08 9.02185 22.08C11.0019 22.08 12.9029 21.368 14.3729 20.075L19.3429 15.695C20.9389 14.288 21.8789 12.356 21.9899 10.255C22.0999 8.162 21.3709 6.15 19.9379 4.591C18.4219 2.944 16.2499 2 13.9779 2V2Z" fill="white"/>
</mask>
<g mask="url(#mask0)">
<rect width="24" height="24" fill="#2E3134"/>
</g>
</svg>
