<svg width="24" height="24" viewBox="0 0 24 24" fill="none" xmlns="http://www.w3.org/2000/svg">
<path fill-rule="evenodd" clip-rule="evenodd" d="M20 13C20 8.589 16.411 5 12 5C7.589 5 4 8.589 4 13C4 17.411 7.589 21 12 21C16.411 21 20 17.411 20 13V13ZM21 13C21 17.962 16.962 22 12 22C7.038 22 3 17.962 3 13C3 8.038 7.038 4 12 4C14.214 4 16.241 4.808 17.811 6.139L19.242 4.707L19.95 5.414L18.534 6.83C20.058 8.443 21 10.611 21 13V13ZM9 3H15V2H9V3ZM11.5 14H12.5V8H11.5V14Z" fill="#2E3134"/>
<mask id="mask0" mask-type="alpha" maskUnits="userSpaceOnUse" x="3" y="2" width="18" height="20">
<path fill-rule="evenodd" clip-rule="evenodd" d="M20 13C20 8.589 16.411 5 12 5C7.589 5 4 8.589 4 13C4 17.411 7.589 21 12 21C16.411 21 20 17.411 20 13V13ZM21 13C21 17.962 16.962 22 12 22C7.038 22 3 17.962 3 13C3 8.038 7.038 4 12 4C14.214 4 16.241 4.808 17.811 6.139L19.242 4.707L19.95 5.414L18.534 6.83C20.058 8.443 21 10.611 21 13V13ZM9 3H15V2H9V3ZM11.5 14H12.5V8H11.5V14Z" fill="white"/>
</mask>
<g mask="url(#mask0)">
<rect width="24" height="24" fill="#2E3134"/>
</g>
</svg>
